<?xml version="1.0" encoding="UTF-8" standalone="no"?>
<!-- Created with Inkscape (http://www.inkscape.org/) -->

<svg
   xmlns:dc="http://purl.org/dc/elements/1.1/"
   xmlns:cc="http://creativecommons.org/ns#"
   xmlns:rdf="http://www.w3.org/1999/02/22-rdf-syntax-ns#"
   xmlns:svg="http://www.w3.org/2000/svg"
   xmlns="http://www.w3.org/2000/svg"
   xmlns:sodipodi="http://sodipodi.sourceforge.net/DTD/sodipodi-0.dtd"
   xmlns:inkscape="http://www.inkscape.org/namespaces/inkscape"
   width="744.09448819"
   height="1052.3622047"
   id="svg3481"
   version="1.1"
   inkscape:version="0.48.2 r9819"
   sodipodi:docname="drawing.svg">
  <defs
     id="defs3483" />
  <sodipodi:namedview
     id="base"
     pagecolor="#ffffff"
     bordercolor="#666666"
     borderopacity="1.0"
     inkscape:pageopacity="0.0"
     inkscape:pageshadow="2"
     inkscape:zoom="2.8"
     inkscape:cx="228.14485"
     inkscape:cy="433.5072"
     inkscape:document-units="px"
     inkscape:current-layer="layer1"
     showgrid="true"
     inkscape:snap-grids="true"
     objecttolerance="20"
     inkscape:window-width="1920"
     inkscape:window-height="1126"
     inkscape:window-x="0"
     inkscape:window-y="25"
     inkscape:window-maximized="1">
    <inkscape:grid
       type="xygrid"
       id="grid3489"
       empspacing="5"
       visible="true"
       enabled="true"
       snapvisiblegridlinesonly="true"
       units="mm"
       spacingx="0.5mm"
       spacingy="0.5mm" />
  </sodipodi:namedview>
  <metadata
     id="metadata3486">
    <rdf:RDF>
      <cc:Work
         rdf:about="">
        <dc:format>image/svg+xml</dc:format>
        <dc:type
           rdf:resource="http://purl.org/dc/dcmitype/StillImage" />
        <dc:title />
      </cc:Work>
    </rdf:RDF>
  </metadata>
  <g
     inkscape:label="Layer 1"
     inkscape:groupmode="layer"
     id="layer1">
    <g
       id="g4859">
      <path
         sodipodi:nodetypes="cccccccccsssss"
         id="path3491"
         d="m 389.76378,370.27557 -248.0315,0 L 70.875,441.1562 c -5.346363,5.01445 -6.741432,10.65841 0,17.6875 l 70.84375,70.875 248.03125,0 c 13.69658,0.469 18.82932,-6.07281 17.71875,-17.71875 l 0.0116,-124.00785 c 0,-8.85826 -8.85826,-17.71653 -17.71653,-17.71653 z M 88.59375,441.15625 c 4.892286,0 8.84375,3.95146 8.84375,8.84375 0,4.89229 -3.951464,8.84375 -8.84375,8.84375 -4.892286,0 -8.875,-3.95146 -8.875,-8.84375 0,-4.89229 3.982714,-8.84375 8.875,-8.84375 z"
         style="fill:#f0f0f0;fill-opacity:1;stroke:#000000;stroke-width:3.54330709;stroke-linecap:butt;stroke-linejoin:miter;stroke-miterlimit:4;stroke-opacity:1;stroke-dasharray:none"
         inkscape:connector-curvature="0" />
      <path
         sodipodi:nodetypes="ccccccccc"
         inkscape:connector-curvature="0"
         id="path4282"
         d="m 160.08155,503.74013 c 0.40928,6.41523 3.2991,8.76137 7.92008,8.26772 l 213.84208,0 c 4.19141,-0.44234 7.88513,-1.62693 7.92007,-8.26772 l 0,-107.48031 c -1.3659,-7.18943 -4.83692,-7.05374 -7.92007,-8.26772 l -213.84208,0 c -5.35964,0.20082 -8.57017,2.42074 -7.92008,8.26772 z"
         style="fill:none;stroke:#000000;stroke-width:3.54330709;stroke-linecap:butt;stroke-linejoin:miter;stroke-miterlimit:4;stroke-opacity:1;stroke-dasharray:none" />
    </g>
    <g
       id="g3783">
      <path
         sodipodi:nodetypes="ccccccssccccccccccsssss"
         inkscape:connector-curvature="0"
         id="path3491-6"
         d="m 150.59055,574.01573 c -17.71653,0 -52.935366,47.26035 -79.40305,70.89052 -5.346363,5.01445 -6.741432,10.65841 0,17.6875 26.467684,23.6236 61.68652,70.87079 79.40305,70.87079 l 239.47195,0.004 c 13.69658,0.469 18.82932,-6.07281 17.71875,-17.71875 l 0,-124.03125 c 0,-8.85826 -8.86048,-17.6875 -17.71875,-17.6875 z m 17.72195,17.70302 213.84375,0 c 3.08315,1.21398 6.54035,1.09182 7.90625,8.28125 l 0,107.46875 c -0.0349,6.64079 -3.71484,7.83891 -7.90625,8.28125 l -213.84375,0 c -4.62098,0.49365 -7.52822,-1.86602 -7.9375,-8.28125 L 160.375,600 c -0.65009,-5.84698 2.57786,-8.08043 7.9375,-8.28125 z m -70.871555,53.16312 c 4.892285,0 8.858265,3.96598 8.858265,8.85827 0,4.89229 -3.96598,8.85826 -8.858265,8.85826 -4.892286,0 -8.858268,-3.96597 -8.858268,-8.85826 0,-4.89229 3.965982,-8.85827 8.858268,-8.85827 z"
         style="fill:#f0f0f0;fill-opacity:1;stroke:none;stroke-width:3.54330707000000000;stroke-linecap:butt;stroke-linejoin:miter;stroke-miterlimit:4;stroke-opacity:1;stroke-dasharray:none" />
      <path
         sodipodi:nodetypes="ccccccccc"
         inkscape:connector-curvature="0"
         id="path3013"
         d="m 177.16535,600.59053 c -5.2577,0.16761 -9.27206,1.83759 -8.85826,8.85827 l 0,88.58267 c -0.24696,6.41911 3.40934,8.60969 8.85826,8.85827 l 194.88189,0 c 7.63699,0.0281 9.00911,-3.9305 8.85827,-8.85827 l 0,-88.58267 c 0.5968,-6.63884 -3.29517,-8.61625 -8.85827,-8.85827 z"
         style="fill:#f0f0f0;stroke:none;stroke-width:1px;stroke-linecap:butt;stroke-linejoin:miter;stroke-opacity:1;fill-opacity:1" />
    </g>
  </g>
</svg>
